<?xml version="1.0" standalone="no"?>
<!DOCTYPE svg PUBLIC "-//W3C//DTD SVG 20010904//EN"
 "http://www.w3.org/TR/2001/REC-SVG-20010904/DTD/svg10.dtd">
<svg version="1.0" xmlns="http://www.w3.org/2000/svg"
 width="2387.000000pt" height="2392.000000pt" viewBox="0 0 2387.000000 2392.000000"
 preserveAspectRatio="xMidYMid meet">

<rect width="100%" height="100%" fill="white"/>

<g transform="translate(0.000000,2392.000000) scale(0.100000,-0.100000)"
fill="#000000" stroke="none">
<path d="M7640 21020 c-2362 -1469 -4296 -2673 -4297 -2677 -2 -9 883 -519
895 -516 4 1 1728 1071 3832 2379 2104 1307 3837 2384 3851 2392 25 15 93 -27
3859 -2367 2108 -1311 3843 -2389 3854 -2396 19 -12 59 9 447 234 234 135 435
253 447 261 21 14 -181 141 -4271 2682 -2361 1467 -4299 2669 -4307 2672 -9 3
-1778 -1091 -4310 -2664z"/>
<path d="M2320 11957 l0 -5752 2186 -1358 c1202 -747 2188 -1356 2191 -1353 3
3 12 324 19 713 10 525 13 1810 14 4963 0 3638 2 4252 14 4240 23 -24 1523
-2315 1550 -2367 14 -26 133 -210 265 -407 l240 -359 269 409 c148 225 622
936 1053 1580 l784 1171 3 -2434 2 -2433 525 0 525 0 0 3380 0 3380 -523 0
-523 0 -1049 -1570 c-578 -863 -1054 -1568 -1059 -1567 -4 2 -471 707 -1035
1567 l-1027 1565 -530 0 -529 0 -3 -5062 c-1 -2785 -4 -5063 -6 -5063 -6 0
-2379 1474 -2418 1502 l-28 19 0 5232 -1 5232 -454 262 -455 261 0 -5751z"/>
<path d="M21110 17445 l-455 -264 -3 -3780 -2 -3781 -2925 0 -2925 0 0 2855 0
2855 -522 -2 -523 -3 -3 -3377 -2 -3378 3910 0 3910 0 0 4570 c0 2514 -1 4570
-2 4569 -2 0 -208 -119 -458 -264z"/>
<path d="M20650 7117 l0 -403 -4335 -2694 c-2385 -1482 -4346 -2699 -4358
-2704 -19 -7 -327 181 -2101 1283 -1143 711 -2081 1289 -2084 1286 -3 -3 -10
-240 -15 -527 -9 -503 -8 -522 9 -535 36 -26 4177 -2598 4181 -2597 3 1 2169
1347 4814 2990 l4809 2989 0 658 0 657 -460 0 -460 0 0 -403z"/>
</g>
</svg>
